<svg width="60" height="60" viewBox="0 0 60 60" xmlns="http://www.w3.org/2000/svg">
  <!-- Background circle -->
  <circle cx="30" cy="30" r="28" fill="white" stroke="#0056b3" stroke-width="2"/>
  
  <!-- Official UB Logo - Intertwined U and B -->
  <g fill="#0056b3">
    <!-- U shape -->
    <path d="M18 15 L18 35 Q18 40 23 40 L27 40 Q32 40 32 35 L32 15 L30 15 L30 35 Q30 38 27 38 L23 38 Q20 38 20 35 L20 15 Z"/>
    
    <!-- B shape - intertwined with U -->
    <path d="M25 15 L35 15 Q42 15 42 22 Q42 25 40 27 Q42 29 42 32 Q42 39 35 39 L25 39 L25 15 Z"/>
    <path d="M27 17 L27 25 L33 25 Q36 25 36 22 Q36 19 33 19 L27 19 Z"/>
    <path d="M27 27 L27 37 L33 37 Q36 37 36 34 Q36 31 33 31 L27 31 Z"/>
  </g>
</svg>
